<svg width="24" height="24" viewBox="0 0 24 24" fill="none" xmlns="http://www.w3.org/2000/svg">
<path d="M4.26754 13.325V10.2431C4.26754 9.92017 4.42351 9.6171 4.68631 9.42939L6.52431 8.11653C6.69392 7.99538 6.89713 7.93026 7.10555 7.93026H9.66228M4.26754 13.325V16.9215V16.9215C4.26754 17.1201 4.42856 17.2811 4.62719 17.2811H6.6848C6.97673 17.2811 7.25408 17.4087 7.44406 17.6303L9.00331 19.4495C9.19329 19.6711 9.47064 19.7987 9.76257 19.7987H16.8553V19.7987C17.0539 19.7987 17.2149 19.6377 17.2149 19.439V17.2811V17.2811C17.2149 17.0825 17.3759 16.9215 17.5746 16.9215H19.69C19.9364 16.9215 20.1617 17.0607 20.2719 17.2811V17.2811C20.3821 17.5016 20.6074 17.6408 20.8539 17.6408H21.1165C21.3817 17.6408 21.6361 17.5354 21.8236 17.3479L21.9571 17.2144C22.1446 17.0268 22.25 16.7725 22.25 16.5073V12.9085C22.25 12.7111 22.1916 12.518 22.0821 12.3538L21.8276 11.9721C21.6421 11.6939 21.3299 11.5268 20.9955 11.5268H20.6608C20.3212 11.5268 20.0197 11.7441 19.9123 12.0662V12.0662C19.8049 12.3884 19.5034 12.6057 19.1638 12.6057H18.6535V12.6057C18.4549 12.6057 18.2939 12.4447 18.2939 12.2461V10.862C18.2939 10.5968 18.1885 10.3424 18.001 10.1549L16.0692 8.22315C15.8817 8.03562 15.6273 7.93026 15.3621 7.93026H12.5395M4.26754 13.325H2.10965H1.75M4.26754 13.325H1.75M1.75 13.325V15.5398C1.75 15.7372 1.80844 15.9302 1.91795 16.0945L2.4693 16.9215M1.75 13.325V11.4699C1.75 11.2725 1.80844 11.0794 1.91795 10.9152L2.4693 10.0882M9.66228 7.93026V7.13202C9.66228 6.57973 9.21457 6.13202 8.66228 6.13202H8.50439C7.9521 6.13202 7.50439 5.6843 7.50439 5.13202V5.10763C7.50439 4.84242 7.60974 4.58806 7.79728 4.40053L7.93079 4.26701C8.11833 4.07948 8.37268 3.97412 8.6379 3.97412H13.9235C14.1887 3.97412 14.4431 4.07948 14.6306 4.26701L14.7641 4.40053C14.9517 4.58806 15.057 4.84242 15.057 5.10763V5.13202C15.057 5.6843 14.6093 6.13202 14.057 6.13202H13.6184H13.5395C12.9872 6.13202 12.5395 6.57973 12.5395 7.13202V7.93026M9.66228 7.93026H12.5395" stroke="#00122A" stroke-width="1.4386" stroke-linecap="round"/>
<path d="M9.65489 10.8262L14.1004 15.3198C14.5735 15.7979 14.6079 16.5565 14.1801 17.0756C13.7659 17.5781 13.0456 17.7005 12.4887 17.3628L7.0838 14.0852C6.01602 13.4377 5.74998 12.0049 6.51416 11.0172C7.288 10.0171 8.76553 9.92722 9.65489 10.8262Z" stroke="#00122A" stroke-width="1.2"/>
<circle cx="8.21378" cy="12.3787" r="0.683389" transform="rotate(4.18344 8.21378 12.3787)" fill="black" stroke="#00122A"/>
<circle cx="13.0894" cy="16.236" r="0.48967" transform="rotate(4.18344 13.0894 16.236)" fill="black" stroke="#00122A" stroke-width="0.0809133"/>
</svg>
