<svg width="142" height="124" viewBox="0 0 142 124" fill="none" xmlns="http://www.w3.org/2000/svg">
<path d="M0.013751 60.7278C1.01299 26.4931 56.2172 -0.689898 123.317 0.0133429C129.124 0.0742003 134.828 0.34178 140.406 0.802557C83.687 5.505 40.0869 30.3377 39.2001 60.7278C38.2871 91.9998 82.9194 118.338 141.795 123.198C134.619 123.792 127.234 124.066 119.698 123.987C52.5992 123.284 -0.985485 94.9615 0.013751 60.7278Z" fill="url(#paint0_linear_92_83)"/>
<path d="M74.4921 70.6216H96.074C101.024 70.6216 104.386 72.2223 106.159 75.4255C107.05 77.114 107.272 79.188 106.891 81.1789C106.891 81.1789 72.5866 81.1702 72.4887 81.1383C67.9791 80.9703 64.8874 79.3745 63.2116 76.349C62.3432 74.7029 62.0796 72.9129 62.4198 70.979L67.8802 42.3992C68.2824 40.4653 69.2332 38.6754 70.7335 37.0293C73.7371 33.8261 77.7136 32.2245 82.6643 32.2245L116.313 32.2061C115.929 34.197 114.91 36.271 113.371 37.9596C110.367 41.1628 106.391 42.7634 101.44 42.7634L80.0513 42.7644C79.1006 42.7644 78.2302 43.4667 78.0112 44.3525L73.2951 68.8964C73.1197 69.8218 73.6518 70.5405 74.4921 70.6216Z" fill="#002D6A"/>
<defs>
<linearGradient id="paint0_linear_92_83" x1="106.735" y1="80.9576" x2="45.5909" y2="7.98703" gradientUnits="userSpaceOnUse">
<stop stop-color="#FFF200"/>
<stop offset="0.1464" stop-color="#FFE515"/>
<stop offset="0.4292" stop-color="#FFC94D"/>
<stop offset="0.511" stop-color="#FEC057"/>
</linearGradient>
</defs>
</svg>
