<svg width="20" height="20" viewBox="0 0 24 24" fill="none" xmlns="http://www.w3.org/2000/svg">
<path d="M2 13L4.1 7C4.2 6.7 4.37933 6.45833 4.638 6.275C4.89667 6.09167 5.184 6 5.5 6H10.075C10.025 6.33333 10 6.66667 10 7C10 7.33333 10.025 7.66667 10.075 8H5.85L4.8 11H11.275C11.5583 11.4 11.875 11.771 12.225 12.113C12.575 12.455 12.9667 12.7507 13.4 13H4V18H18V13.925C18.35 13.875 18.6917 13.8 19.025 13.7C19.3583 13.6 19.6833 13.475 20 13.325V21C20 21.2833 19.904 21.521 19.712 21.713C19.52 21.905 19.2827 22.0007 19 22H18C17.7167 22 17.4793 21.904 17.288 21.712C17.0967 21.52 17.0007 21.2827 17 21V20H5V21C5 21.2833 4.904 21.521 4.712 21.713C4.52 21.905 4.28267 22.0007 4 22H3C2.71667 22 2.47933 21.904 2.288 21.712C2.09667 21.52 2.00067 21.2827 2 21V13ZM15.5 17C15.9167 17 16.271 16.8543 16.563 16.563C16.855 16.2717 17.0007 15.9173 17 15.5C16.9993 15.0827 16.8537 14.7287 16.563 14.438C16.2723 14.1473 15.918 14.0013 15.5 14C15.082 13.9987 14.728 14.1447 14.438 14.438C14.148 14.7313 14.002 15.0853 14 15.5C13.998 15.9147 14.144 16.269 14.438 16.563C14.732 16.857 15.086 17.0027 15.5 17ZM6.5 17C6.91667 17 7.271 16.8543 7.563 16.563C7.855 16.2717 8.00067 15.9173 8 15.5C7.99933 15.0827 7.85367 14.7287 7.563 14.438C7.27233 14.1473 6.918 14.0013 6.5 14C6.082 13.9987 5.728 14.1447 5.438 14.438C5.148 14.7313 5.002 15.0853 5 15.5C4.998 15.9147 5.144 16.269 5.438 16.563C5.732 16.857 6.086 17.0027 6.5 17ZM17 12C15.6167 12 14.4377 11.5123 13.463 10.537C12.4883 9.56167 12.0007 8.38267 12 7C12 5.63333 12.4833 4.45833 13.45 3.475C14.4167 2.49167 15.6 2 17 2C18.3833 2 19.5627 2.48733 20.538 3.462C21.5133 4.43667 22.0007 5.616 22 7C21.9993 8.384 21.5117 9.56333 20.537 10.538C19.5623 11.5127 18.3833 12 17 12ZM16.5 7.5H17.5H18.5H19.5V6.5H17.5V4H16.5V7.5Z" fill="#00122A"/>
</svg>
