<svg width="21" height="20" viewBox="0 0 21 20" fill="none" xmlns="http://www.w3.org/2000/svg">
<path d="M4.16602 3.8335H16.8327C17.6611 3.8335 18.3327 4.50507 18.3327 5.3335V13.8335C18.3327 14.6619 17.6611 15.3335 16.8327 15.3335H4.16601C3.33759 15.3335 2.66602 14.6619 2.66602 13.8335V5.3335C2.66602 4.50507 3.33759 3.8335 4.16602 3.8335Z" stroke="#6b7280"/>
<path d="M4.66602 7.5L6.51787 12.5L8.41602 7.5" stroke="#6b7280" stroke-linecap="round" stroke-linejoin="round"/>
<path d="M9.66602 7C9.38987 7 9.16602 7.22386 9.16602 7.5C9.16602 7.77614 9.38987 8 9.66602 8V7ZM11.3327 8C11.6088 8 11.8327 7.77614 11.8327 7.5C11.8327 7.22386 11.6088 7 11.3327 7V8ZM10.4993 12.5V13H10.9993V12.5H10.4993ZM9.66602 12C9.38987 12 9.16602 12.2239 9.16602 12.5C9.16602 12.7761 9.38987 13 9.66602 13V12ZM11.3327 13C11.6088 13 11.8327 12.7761 11.8327 12.5C11.8327 12.2239 11.6088 12 11.3327 12V13ZM9.66602 8H10.4993V7H9.66602V8ZM10.4993 8H11.3327V7H10.4993V8ZM9.99935 7.5V12.5H10.9993V7.5H9.99935ZM10.4993 12H9.66602V13H10.4993V12ZM9.66602 13H11.3327V12H9.66602V13Z" fill="#6b7280"/>
<path d="M13 12.5V7.50003L16.3333 12.5V7.5" stroke="#6b7280" stroke-linecap="round" stroke-linejoin="round"/>
</svg>
